<?xml version="1.0" encoding="UTF-8"?>
<svg xmlns="http://www.w3.org/2000/svg" style="display: none;">
  <!-- Sun -->
  <symbol id="sun" viewBox="0 0 24 24" fill="none" stroke="currentColor" stroke-width="2" stroke-linecap="round" stroke-linejoin="round">
    <circle cx="12" cy="12" r="5"/>
    <line x1="12" y1="1" x2="12" y2="3"/>
    <line x1="12" y1="21" x2="12" y2="23"/>
    <line x1="4.22" y1="4.22" x2="5.64" y2="5.64"/>
    <line x1="18.36" y1="18.36" x2="19.78" y2="19.78"/>
    <line x1="1" y1="12" x2="3" y2="12"/>
    <line x1="21" y1="12" x2="23" y2="12"/>
    <line x1="4.22" y1="19.78" x2="5.64" y2="18.36"/>
    <line x1="18.36" y1="5.64" x2="19.78" y2="4.22"/>
  </symbol>
  
  <!-- Moon -->
  <symbol id="moon" viewBox="0 0 24 24" fill="none" stroke="currentColor" stroke-width="2" stroke-linecap="round" stroke-linejoin="round">
    <path d="M21 12.79A9 9 0 1 1 11.21 3 7 7 0 0 0 21 12.79z"/>
  </symbol>
  
  <!-- Cloud -->
  <symbol id="cloud" viewBox="0 0 24 24" fill="none" stroke="currentColor" stroke-width="2" stroke-linecap="round" stroke-linejoin="round">
    <path d="M18 10h-1.26A8 8 0 1 0 9 20h9a5 5 0 0 0 0-10z"/>
  </symbol>
  
  <!-- Clouds -->
  <symbol id="clouds" viewBox="0 0 24 24" fill="none" stroke="currentColor" stroke-width="2" stroke-linecap="round" stroke-linejoin="round">
    <path d="M17 5a3 3 0 0 0-3-3H8a3 3 0 0 0-3 3v12a3 3 0 0 0 3 3h6a3 3 0 0 0 3-3V5z"/>
    <path d="M20 8h-5a2 2 0 0 0-2 2v8a2 2 0 0 0 2 2h5a2 2 0 0 0 2-2v-8a2 2 0 0 0-2-2z"/>
  </symbol>
  
  <!-- Cloud with Sun -->
  <symbol id="cloud-sun" viewBox="0 0 24 24" fill="none" stroke="currentColor" stroke-width="2" stroke-linecap="round" stroke-linejoin="round">
    <path d="M12 2v2"/>
    <path d="M12 8a4 4 0 1 0 0 8h8a4 4 0 0 0 2-7.5"/>
    <path d="M12 4a4 4 0 0 0-4 4"/>
    <path d="M16 6a4 4 0 0 0-4 4"/>
  </symbol>
  
  <!-- Cloud with Moon -->
  <symbol id="cloud-moon" viewBox="0 0 24 24" fill="none" stroke="currentColor" stroke-width="2" stroke-linecap="round" stroke-linejoin="round">
    <path d="M13 16a3 3 0 1 1 0 6H7a5 5 0 1 1 4.9-6"/>
    <path d="M10.1 9A6 6 0 0 1 16 4a4.24 4.24 0 0 0 6 6 6 6 0 0 1-3 5.197"/>
  </symbol>
  
  <!-- Cloud with Rain -->
  <symbol id="cloud-rain" viewBox="0 0 24 24" fill="none" stroke="currentColor" stroke-width="2" stroke-linecap="round" stroke-linejoin="round">
    <path d="M16 13v8"/>
    <path d="M8 13v8"/>
    <path d="M12 15v8"/>
    <path d="M20 16.58A5 5 0 0 0 18 7h-1.26A8 8 0 1 0 4 15.25"/>
  </symbol>
  
  <!-- Cloud with Sun and Rain -->
  <symbol id="cloud-sun-rain" viewBox="0 0 24 24" fill="none" stroke="currentColor" stroke-width="2" stroke-linecap="round" stroke-linejoin="round">
    <path d="M12 2v2"/>
    <path d="M12 8a4 4 0 1 0 0 8h8a4 4 0 0 0 2-7.5"/>
    <path d="M12 4a4 4 0 0 0-4 4"/>
    <path d="M16 6a4 4 0 0 0-4 4"/>
    <path d="M16 16v2"/>
    <path d="M8 16v2"/>
    <path d="M12 18v2"/>
  </symbol>
  
  <!-- Cloud with Moon and Rain -->
  <symbol id="cloud-moon-rain" viewBox="0 0 24 24" fill="none" stroke="currentColor" stroke-width="2" stroke-linecap="round" stroke-linejoin="round">
    <path d="M13 16a3 3 0 1 1 0 6H7a5 5 0 1 1 4.9-6"/>
    <path d="M10.1 9A6 6 0 0 1 16 4a4.24 4.24 0 0 0 6 6 6 6 0 0 1-3 5.197"/>
    <path d="M16 16v2"/>
    <path d="M8 16v2"/>
    <path d="M12 18v2"/>
  </symbol>
  
  <!-- Cloud with Lightning -->
  <symbol id="cloud-lightning" viewBox="0 0 24 24" fill="none" stroke="currentColor" stroke-width="2" stroke-linecap="round" stroke-linejoin="round">
    <path d="M19 16.9A5 5 0 0 0 18 7h-1.26a8 8 0 1 0-11.62 9"/>
    <polyline points="13 11 9 17 15 17 11 23"/>
  </symbol>
  
  <!-- Snowflake -->
  <symbol id="snowflake" viewBox="0 0 24 24" fill="none" stroke="currentColor" stroke-width="2" stroke-linecap="round" stroke-linejoin="round">
    <line x1="2" y1="12" x2="22" y2="12"/>
    <line x1="12" y1="2" x2="12" y2="22"/>
    <line x1="20" y1="4" x2="4" y2="20"/>
    <line x1="4" y1="4" x2="20" y2="20"/>
  </symbol>
  
  <!-- Fog -->
  <symbol id="fog" viewBox="0 0 24 24" fill="none" stroke="currentColor" stroke-width="2" stroke-linecap="round" stroke-linejoin="round">
    <line x1="5" y1="9" x2="19" y2="9"/>
    <line x1="3" y1="13" x2="21" y2="13"/>
    <line x1="7" y1="17" x2="17" y2="17"/>
  </symbol>
</svg>
